<svg xmlns="http://www.w3.org/2000/svg" width="218" height="228" viewBox="510 160 218 228" role="img"><title>15-attachments: 1 Attach image; 2 Attach screenshot; 3 Attach audio; 4 Attach file</title><g fill="none" stroke="white" stroke-width="5"><rect x="527" y="207" width="184" height="38" rx="4"/></g><g fill="none" stroke="#d42816" stroke-width="2.5"><rect x="527" y="207" width="184" height="38" rx="4"/></g><line x1="711" y1="193" x2="711" y2="207" stroke="#b91c1c" stroke-width="2"/><circle cx="711" cy="193" r="12" fill="#b91c1c" stroke="white" stroke-width="2"/><text x="711" y="197" text-anchor="middle" font-family="Arial,sans-serif" font-size="13" font-weight="bold" fill="white">1</text><g fill="none" stroke="white" stroke-width="5"><rect x="527" y="239" width="184" height="38" rx="4"/></g><g fill="none" stroke="#d42816" stroke-width="2.5"><rect x="527" y="239" width="184" height="38" rx="4"/></g><line x1="711" y1="225" x2="711" y2="239" stroke="#b91c1c" stroke-width="2"/><circle cx="711" cy="225" r="12" fill="#b91c1c" stroke="white" stroke-width="2"/><text x="711" y="229" text-anchor="middle" font-family="Arial,sans-serif" font-size="13" font-weight="bold" fill="white">2</text><g fill="none" stroke="white" stroke-width="5"><rect x="527" y="271" width="184" height="38" rx="4"/></g><g fill="none" stroke="#d42816" stroke-width="2.5"><rect x="527" y="271" width="184" height="38" rx="4"/></g><line x1="711" y1="257" x2="711" y2="271" stroke="#b91c1c" stroke-width="2"/><circle cx="711" cy="257" r="12" fill="#b91c1c" stroke="white" stroke-width="2"/><text x="711" y="261" text-anchor="middle" font-family="Arial,sans-serif" font-size="13" font-weight="bold" fill="white">3</text><g fill="none" stroke="white" stroke-width="5"><rect x="527" y="303" width="184" height="38" rx="4"/></g><g fill="none" stroke="#d42816" stroke-width="2.5"><rect x="527" y="303" width="184" height="38" rx="4"/></g><line x1="711" y1="289" x2="711" y2="303" stroke="#b91c1c" stroke-width="2"/><circle cx="711" cy="289" r="12" fill="#b91c1c" stroke="white" stroke-width="2"/><text x="711" y="293" text-anchor="middle" font-family="Arial,sans-serif" font-size="13" font-weight="bold" fill="white">4</text></svg>