<svg xmlns="http://www.w3.org/2000/svg" width="1144" height="795" viewBox="0 -30 1144 795" role="img"><title>23-maintenance: 1 Back up library; 2 Asset scan; 3 Export diagnostics; 4 Scan counts; 5 Actual job history</title><g fill="none" stroke="white" stroke-width="5"><rect x="329.796875" y="285.5" width="124.546875" height="40" rx="4"/></g><g fill="none" stroke="#d42816" stroke-width="2.5"><rect x="329.796875" y="285.5" width="124.546875" height="40" rx="4"/></g><line x1="454.34375" y1="271.5" x2="454.34375" y2="285.5" stroke="#b91c1c" stroke-width="2"/><circle cx="454.34375" cy="271.5" r="12" fill="#b91c1c" stroke="white" stroke-width="2"/><text x="454.34375" y="275.5" text-anchor="middle" font-family="Arial,sans-serif" font-size="13" font-weight="bold" fill="white">1</text><g fill="none" stroke="white" stroke-width="5"><rect x="455.34375" y="285.5" width="209.9375" height="40" rx="4"/></g><g fill="none" stroke="#d42816" stroke-width="2.5"><rect x="455.34375" y="285.5" width="209.9375" height="40" rx="4"/></g><line x1="665.28125" y1="271.5" x2="665.28125" y2="285.5" stroke="#b91c1c" stroke-width="2"/><circle cx="665.28125" cy="271.5" r="12" fill="#b91c1c" stroke="white" stroke-width="2"/><text x="665.28125" y="275.5" text-anchor="middle" font-family="Arial,sans-serif" font-size="13" font-weight="bold" fill="white">2</text><g fill="none" stroke="white" stroke-width="5"><rect x="666.28125" y="285.5" width="147.390625" height="40" rx="4"/></g><g fill="none" stroke="#d42816" stroke-width="2.5"><rect x="666.28125" y="285.5" width="147.390625" height="40" rx="4"/></g><line x1="813.671875" y1="271.5" x2="813.671875" y2="285.5" stroke="#b91c1c" stroke-width="2"/><circle cx="813.671875" cy="271.5" r="12" fill="#b91c1c" stroke="white" stroke-width="2"/><text x="813.671875" y="275.5" text-anchor="middle" font-family="Arial,sans-serif" font-size="13" font-weight="bold" fill="white">3</text><g fill="none" stroke="white" stroke-width="5"><rect x="329.796875" y="249.5" width="716.40625" height="26" rx="4"/></g><g fill="none" stroke="#d42816" stroke-width="2.5"><rect x="329.796875" y="249.5" width="716.40625" height="26" rx="4"/></g><line x1="1046.203125" y1="235.5" x2="1046.203125" y2="249.5" stroke="#b91c1c" stroke-width="2"/><circle cx="1046.203125" cy="235.5" r="12" fill="#b91c1c" stroke="white" stroke-width="2"/><text x="1046.203125" y="239.5" text-anchor="middle" font-family="Arial,sans-serif" font-size="13" font-weight="bold" fill="white">4</text><g fill="none" stroke="white" stroke-width="5"><rect x="329.796875" y="343.5" width="716.40625" height="63" rx="4"/></g><g fill="none" stroke="#d42816" stroke-width="2.5"><rect x="329.796875" y="343.5" width="716.40625" height="63" rx="4"/></g><line x1="1046.203125" y1="329.5" x2="1046.203125" y2="343.5" stroke="#b91c1c" stroke-width="2"/><circle cx="1046.203125" cy="329.5" r="12" fill="#b91c1c" stroke="white" stroke-width="2"/><text x="1046.203125" y="333.5" text-anchor="middle" font-family="Arial,sans-serif" font-size="13" font-weight="bold" fill="white">5</text></svg>